<mxfile host="app.diagrams.net" modified="2023-08-14T16:28:11.188Z" agent="Mozilla/5.0 (Windows NT 10.0; Win64; x64) AppleWebKit/537.36 (KHTML, like Gecko) Chrome/114.0.0.0 Safari/537.36 OPR/100.0.0.0" etag="LfWS1nggyDKMG7uFUdIh" version="21.6.8" type="device">
  <diagram name="Página-1" id="9qDmhq4_xYD_hm5phwyE">
    <mxGraphModel dx="1324" dy="576" grid="1" gridSize="10" guides="1" tooltips="1" connect="1" arrows="1" fold="1" page="1" pageScale="1" pageWidth="583" pageHeight="827" math="0" shadow="0">
      <root>
        <mxCell id="0" />
        <mxCell id="1" parent="0" />
        <mxCell id="PVgiwaDnxUKKAfwNEZq2-10" value="Usuario" style="swimlane;fontStyle=1;align=center;verticalAlign=top;childLayout=stackLayout;horizontal=1;startSize=26;horizontalStack=0;resizeParent=1;resizeParentMax=0;resizeLast=0;collapsible=1;marginBottom=0;whiteSpace=wrap;html=1;" vertex="1" parent="1">
          <mxGeometry x="40" y="40" width="160" height="150" as="geometry" />
        </mxCell>
        <mxCell id="PVgiwaDnxUKKAfwNEZq2-11" value="+ nombre: String&lt;br&gt;+ correo: String&lt;br&gt;+ contraseña: String&lt;br&gt;+ casas[]: Casa" style="text;strokeColor=none;fillColor=none;align=left;verticalAlign=top;spacingLeft=4;spacingRight=4;overflow=hidden;rotatable=0;points=[[0,0.5],[1,0.5]];portConstraint=eastwest;whiteSpace=wrap;html=1;" vertex="1" parent="PVgiwaDnxUKKAfwNEZq2-10">
          <mxGeometry y="26" width="160" height="64" as="geometry" />
        </mxCell>
        <mxCell id="PVgiwaDnxUKKAfwNEZq2-12" value="" style="line;strokeWidth=1;fillColor=none;align=left;verticalAlign=middle;spacingTop=-1;spacingLeft=3;spacingRight=3;rotatable=0;labelPosition=right;points=[];portConstraint=eastwest;strokeColor=inherit;" vertex="1" parent="PVgiwaDnxUKKAfwNEZq2-10">
          <mxGeometry y="90" width="160" height="8" as="geometry" />
        </mxCell>
        <mxCell id="PVgiwaDnxUKKAfwNEZq2-13" value="+ login():void&lt;br&gt;+ crearCasas(Casa): Casa&lt;br&gt;" style="text;strokeColor=none;fillColor=none;align=left;verticalAlign=top;spacingLeft=4;spacingRight=4;overflow=hidden;rotatable=0;points=[[0,0.5],[1,0.5]];portConstraint=eastwest;whiteSpace=wrap;html=1;" vertex="1" parent="PVgiwaDnxUKKAfwNEZq2-10">
          <mxGeometry y="98" width="160" height="52" as="geometry" />
        </mxCell>
        <mxCell id="PVgiwaDnxUKKAfwNEZq2-14" value="Casa" style="swimlane;fontStyle=1;align=center;verticalAlign=top;childLayout=stackLayout;horizontal=1;startSize=26;horizontalStack=0;resizeParent=1;resizeParentMax=0;resizeLast=0;collapsible=1;marginBottom=0;whiteSpace=wrap;html=1;" vertex="1" parent="1">
          <mxGeometry x="270" y="40" width="210" height="160" as="geometry" />
        </mxCell>
        <mxCell id="PVgiwaDnxUKKAfwNEZq2-15" value="+ nombre: String&lt;br&gt;+ dispositivos[]: Dispositivo&lt;br&gt;+ metas[]: Meta" style="text;strokeColor=none;fillColor=none;align=left;verticalAlign=top;spacingLeft=4;spacingRight=4;overflow=hidden;rotatable=0;points=[[0,0.5],[1,0.5]];portConstraint=eastwest;whiteSpace=wrap;html=1;" vertex="1" parent="PVgiwaDnxUKKAfwNEZq2-14">
          <mxGeometry y="26" width="210" height="54" as="geometry" />
        </mxCell>
        <mxCell id="PVgiwaDnxUKKAfwNEZq2-16" value="" style="line;strokeWidth=1;fillColor=none;align=left;verticalAlign=middle;spacingTop=-1;spacingLeft=3;spacingRight=3;rotatable=0;labelPosition=right;points=[];portConstraint=eastwest;strokeColor=inherit;" vertex="1" parent="PVgiwaDnxUKKAfwNEZq2-14">
          <mxGeometry y="80" width="210" height="8" as="geometry" />
        </mxCell>
        <mxCell id="PVgiwaDnxUKKAfwNEZq2-17" value="+ crearDispositivos(Dispositivo): void&lt;br&gt;+ crearMetas(Meta): void&lt;br&gt;+ analisis():void&lt;br&gt;+ recomendaciones(): void" style="text;strokeColor=none;fillColor=none;align=left;verticalAlign=top;spacingLeft=4;spacingRight=4;overflow=hidden;rotatable=0;points=[[0,0.5],[1,0.5]];portConstraint=eastwest;whiteSpace=wrap;html=1;" vertex="1" parent="PVgiwaDnxUKKAfwNEZq2-14">
          <mxGeometry y="88" width="210" height="72" as="geometry" />
        </mxCell>
        <mxCell id="PVgiwaDnxUKKAfwNEZq2-18" value="1" style="endArrow=open;html=1;endSize=12;startArrow=diamondThin;startSize=14;startFill=1;edgeStyle=orthogonalEdgeStyle;align=left;verticalAlign=bottom;rounded=0;" edge="1" parent="1" source="PVgiwaDnxUKKAfwNEZq2-10" target="PVgiwaDnxUKKAfwNEZq2-14">
          <mxGeometry x="-1" y="3" relative="1" as="geometry">
            <mxPoint x="270" y="90" as="sourcePoint" />
            <mxPoint x="430" y="90" as="targetPoint" />
          </mxGeometry>
        </mxCell>
        <mxCell id="PVgiwaDnxUKKAfwNEZq2-19" value="Dispositivos" style="swimlane;fontStyle=1;align=center;verticalAlign=top;childLayout=stackLayout;horizontal=1;startSize=26;horizontalStack=0;resizeParent=1;resizeParentMax=0;resizeLast=0;collapsible=1;marginBottom=0;whiteSpace=wrap;html=1;" vertex="1" parent="1">
          <mxGeometry x="295" y="250" width="170" height="114" as="geometry" />
        </mxCell>
        <mxCell id="PVgiwaDnxUKKAfwNEZq2-20" value="+ nombre: String&lt;br&gt;+ consumoW/h: double&lt;br&gt;+ tiempoDeUsoHora: double" style="text;strokeColor=none;fillColor=none;align=left;verticalAlign=top;spacingLeft=4;spacingRight=4;overflow=hidden;rotatable=0;points=[[0,0.5],[1,0.5]];portConstraint=eastwest;whiteSpace=wrap;html=1;" vertex="1" parent="PVgiwaDnxUKKAfwNEZq2-19">
          <mxGeometry y="26" width="170" height="54" as="geometry" />
        </mxCell>
        <mxCell id="PVgiwaDnxUKKAfwNEZq2-21" value="" style="line;strokeWidth=1;fillColor=none;align=left;verticalAlign=middle;spacingTop=-1;spacingLeft=3;spacingRight=3;rotatable=0;labelPosition=right;points=[];portConstraint=eastwest;strokeColor=inherit;" vertex="1" parent="PVgiwaDnxUKKAfwNEZq2-19">
          <mxGeometry y="80" width="170" height="8" as="geometry" />
        </mxCell>
        <mxCell id="PVgiwaDnxUKKAfwNEZq2-22" value="+ crud(dispositivo):dispositivo" style="text;strokeColor=none;fillColor=none;align=left;verticalAlign=top;spacingLeft=4;spacingRight=4;overflow=hidden;rotatable=0;points=[[0,0.5],[1,0.5]];portConstraint=eastwest;whiteSpace=wrap;html=1;" vertex="1" parent="PVgiwaDnxUKKAfwNEZq2-19">
          <mxGeometry y="88" width="170" height="26" as="geometry" />
        </mxCell>
        <mxCell id="PVgiwaDnxUKKAfwNEZq2-23" value="1" style="endArrow=open;html=1;endSize=12;startArrow=diamondThin;startSize=14;startFill=1;edgeStyle=orthogonalEdgeStyle;align=left;verticalAlign=bottom;rounded=0;entryX=0.799;entryY=-0.005;entryDx=0;entryDy=0;entryPerimeter=0;" edge="1" parent="1" source="PVgiwaDnxUKKAfwNEZq2-14" target="PVgiwaDnxUKKAfwNEZq2-19">
          <mxGeometry x="-1" y="3" relative="1" as="geometry">
            <mxPoint x="230" y="200" as="sourcePoint" />
            <mxPoint x="390" y="200" as="targetPoint" />
          </mxGeometry>
        </mxCell>
        <mxCell id="PVgiwaDnxUKKAfwNEZq2-24" value="Metas" style="swimlane;fontStyle=1;align=center;verticalAlign=top;childLayout=stackLayout;horizontal=1;startSize=26;horizontalStack=0;resizeParent=1;resizeParentMax=0;resizeLast=0;collapsible=1;marginBottom=0;whiteSpace=wrap;html=1;" vertex="1" parent="1">
          <mxGeometry x="70" y="250" width="170" height="140" as="geometry" />
        </mxCell>
        <mxCell id="PVgiwaDnxUKKAfwNEZq2-25" value="+ nombre: String&lt;br&gt;+ fechaLimite: Date&lt;br&gt;+ descripcion: String&lt;br&gt;+ completada: bool" style="text;strokeColor=none;fillColor=none;align=left;verticalAlign=top;spacingLeft=4;spacingRight=4;overflow=hidden;rotatable=0;points=[[0,0.5],[1,0.5]];portConstraint=eastwest;whiteSpace=wrap;html=1;" vertex="1" parent="PVgiwaDnxUKKAfwNEZq2-24">
          <mxGeometry y="26" width="170" height="64" as="geometry" />
        </mxCell>
        <mxCell id="PVgiwaDnxUKKAfwNEZq2-26" value="" style="line;strokeWidth=1;fillColor=none;align=left;verticalAlign=middle;spacingTop=-1;spacingLeft=3;spacingRight=3;rotatable=0;labelPosition=right;points=[];portConstraint=eastwest;strokeColor=inherit;" vertex="1" parent="PVgiwaDnxUKKAfwNEZq2-24">
          <mxGeometry y="90" width="170" height="8" as="geometry" />
        </mxCell>
        <mxCell id="PVgiwaDnxUKKAfwNEZq2-27" value="+ crud(Meta): Meta&lt;br&gt;+ completar(bool): bool" style="text;strokeColor=none;fillColor=none;align=left;verticalAlign=top;spacingLeft=4;spacingRight=4;overflow=hidden;rotatable=0;points=[[0,0.5],[1,0.5]];portConstraint=eastwest;whiteSpace=wrap;html=1;" vertex="1" parent="PVgiwaDnxUKKAfwNEZq2-24">
          <mxGeometry y="98" width="170" height="42" as="geometry" />
        </mxCell>
        <mxCell id="PVgiwaDnxUKKAfwNEZq2-28" value="1" style="endArrow=open;html=1;endSize=12;startArrow=diamondThin;startSize=14;startFill=1;edgeStyle=orthogonalEdgeStyle;align=left;verticalAlign=bottom;rounded=0;exitX=0.322;exitY=0.994;exitDx=0;exitDy=0;exitPerimeter=0;" edge="1" parent="1" source="PVgiwaDnxUKKAfwNEZq2-17" target="PVgiwaDnxUKKAfwNEZq2-24">
          <mxGeometry x="-1" y="3" relative="1" as="geometry">
            <mxPoint x="190" y="200" as="sourcePoint" />
            <mxPoint x="350" y="200" as="targetPoint" />
          </mxGeometry>
        </mxCell>
        <mxCell id="PVgiwaDnxUKKAfwNEZq2-30" value="Recomendacion" style="swimlane;fontStyle=1;align=center;verticalAlign=top;childLayout=stackLayout;horizontal=1;startSize=26;horizontalStack=0;resizeParent=1;resizeParentMax=0;resizeLast=0;collapsible=1;marginBottom=0;whiteSpace=wrap;html=1;" vertex="1" parent="1">
          <mxGeometry x="530" y="30" width="160" height="86" as="geometry" />
        </mxCell>
        <mxCell id="PVgiwaDnxUKKAfwNEZq2-31" value="+ descripcion: String" style="text;strokeColor=none;fillColor=none;align=left;verticalAlign=top;spacingLeft=4;spacingRight=4;overflow=hidden;rotatable=0;points=[[0,0.5],[1,0.5]];portConstraint=eastwest;whiteSpace=wrap;html=1;" vertex="1" parent="PVgiwaDnxUKKAfwNEZq2-30">
          <mxGeometry y="26" width="160" height="26" as="geometry" />
        </mxCell>
        <mxCell id="PVgiwaDnxUKKAfwNEZq2-32" value="" style="line;strokeWidth=1;fillColor=none;align=left;verticalAlign=middle;spacingTop=-1;spacingLeft=3;spacingRight=3;rotatable=0;labelPosition=right;points=[];portConstraint=eastwest;strokeColor=inherit;" vertex="1" parent="PVgiwaDnxUKKAfwNEZq2-30">
          <mxGeometry y="52" width="160" height="8" as="geometry" />
        </mxCell>
        <mxCell id="PVgiwaDnxUKKAfwNEZq2-33" value="+ evaluarConsumo(): void" style="text;strokeColor=none;fillColor=none;align=left;verticalAlign=top;spacingLeft=4;spacingRight=4;overflow=hidden;rotatable=0;points=[[0,0.5],[1,0.5]];portConstraint=eastwest;whiteSpace=wrap;html=1;" vertex="1" parent="PVgiwaDnxUKKAfwNEZq2-30">
          <mxGeometry y="60" width="160" height="26" as="geometry" />
        </mxCell>
        <mxCell id="PVgiwaDnxUKKAfwNEZq2-34" value="1" style="endArrow=open;html=1;endSize=12;startArrow=diamondThin;startSize=14;startFill=1;edgeStyle=orthogonalEdgeStyle;align=left;verticalAlign=bottom;rounded=0;" edge="1" parent="1" source="PVgiwaDnxUKKAfwNEZq2-30" target="PVgiwaDnxUKKAfwNEZq2-14">
          <mxGeometry x="-1" y="3" relative="1" as="geometry">
            <mxPoint x="180" y="140" as="sourcePoint" />
            <mxPoint x="340" y="140" as="targetPoint" />
          </mxGeometry>
        </mxCell>
      </root>
    </mxGraphModel>
  </diagram>
</mxfile>
